<svg xmlns="http://www.w3.org/2000/svg" width="499.234" height="497.877" viewBox="-157.407 -154.914 499.234 497.877"><title>Neo4j Graph Visualization</title><desc>Created using Neo4j (http://www.neo4j.com/)</desc><g class="layer relationships"><g class="relationship"><path fill="#A5ABB6" stroke="none" d="M 25 0.5 L 52.34662240374381 0.5 L 52.34662240374381 -0.5 L 25 -0.5 Z M 112.44427865374381 0.5 L 139.79090105748762 0.5 L 139.79090105748762 3.5 L 146.79090105748762 0 L 139.79090105748762 -3.5 L 139.79090105748762 -0.5 L 112.44427865374381 -0.5 Z" class="outline" transform="translate(94.23977942039565 263.91020216693573) rotate(269.34136715973256)"/><text x="82.395" y="3" fill="#000" font-family="sans-serif" font-size="8" pointer-events="none" text-anchor="middle" transform="translate(94.23977942039565 263.91020216693573) rotate(269.34136715973256) rotate(180 82.39545052874381 0)">BELONGS_TO</text></g><g class="relationship"><path fill="#A5ABB6" stroke="none" d="M 25 0.5 L 25.304542002827887 0.5 L 25.304542002827887 -0.5 L 25 -0.5 Z M 77.98422950282789 0.5 L 78.28877150565577 0.5 L 78.28877150565577 3.5 L 85.28877150565577 0 L 78.28877150565577 -3.5 L 78.28877150565577 -0.5 L 77.98422950282789 -0.5 Z" class="outline" transform="translate(194.3979341052232 133.75376548085708) rotate(202.17279926796056)"/><text x="51.644" y="3" fill="#000" font-family="sans-serif" font-size="8" pointer-events="none" text-anchor="middle" transform="translate(194.3979341052232 133.75376548085708) rotate(202.17279926796056) rotate(180 51.64438575282789 0)">BELONGS…</text></g><g class="relationship"><path fill="#A5ABB6" stroke="none" d="M 25 0.5 L 33.68876529056163 0.5 L 33.68876529056163 -0.5 L 25 -0.5 Z M 93.78642154056163 0.5 L 102.47518683112327 0.5 L 102.47518683112327 3.5 L 109.47518683112327 0 L 102.47518683112327 -3.5 L 102.47518683112327 -0.5 L 93.78642154056163 -0.5 Z" class="outline" transform="translate(134.8056773843811 219.69972855207052) rotate(251.55792961133386)"/><text x="63.738" y="3" fill="#000" font-family="sans-serif" font-size="8" pointer-events="none" text-anchor="middle" transform="translate(134.8056773843811 219.69972855207052) rotate(251.55792961133386) rotate(180 63.73759341556163 0)">BELONGS_TO</text></g><g class="relationship"><path fill="#A5ABB6" stroke="none" d="M 25 0.5 L 48.98723831900092 0.5 L 48.98723831900092 -0.5 L 25 -0.5 Z M 109.08489456900092 0.5 L 133.07213288800185 0.5 L 133.07213288800185 3.5 L 140.07213288800185 0 L 133.07213288800185 -3.5 L 133.07213288800185 -0.5 L 109.08489456900092 -0.5 Z" class="outline" transform="translate(194.7258426180597 221.55472776081936) rotate(231.63249215645936)"/><text x="79.036" y="3" fill="#000" font-family="sans-serif" font-size="8" pointer-events="none" text-anchor="middle" transform="translate(194.7258426180597 221.55472776081936) rotate(231.63249215645936) rotate(180 79.03606644400092 0)">BELONGS_TO</text></g><g class="relationship"><path fill="#A5ABB6" stroke="none" d="M 25 0.5 L 49.79850412315176 0.5 L 49.79850412315176 -0.5 L 25 -0.5 Z M 109.89616037315176 0.5 L 134.69466449630352 0.5 L 134.69466449630352 3.5 L 141.69466449630352 0 L 134.69466449630352 -3.5 L 134.69466449630352 -0.5 L 109.89616037315176 -0.5 Z" class="outline" transform="translate(235.43878193738112 177.50271227367745) rotate(210.80690184153502)"/><text x="79.847" y="3" fill="#000" font-family="sans-serif" font-size="8" pointer-events="none" text-anchor="middle" transform="translate(235.43878193738112 177.50271227367745) rotate(210.80690184153502) rotate(180 79.84733224815176 0)">BELONGS_TO</text></g><g class="relationship"><path fill="#A5ABB6" stroke="none" d="M 25 0.5 L 76.89509066131235 0.5 L 76.89509066131235 -0.5 L 25 -0.5 Z M 136.99274691131234 0.5 L 188.8878375726247 0.5 L 188.8878375726247 3.5 L 195.8878375726247 0 L 188.8878375726247 -3.5 L 188.8878375726247 -0.5 L 136.99274691131234 -0.5 Z" class="outline" transform="translate(312.82671708204145 104.12983009181539) rotate(183.11398256739506)"/><text x="106.944" y="3" fill="#000" font-family="sans-serif" font-size="8" pointer-events="none" text-anchor="middle" transform="translate(312.82671708204145 104.12983009181539) rotate(183.11398256739506) rotate(180 106.94391878631235 0)">BELONGS_TO</text></g><g class="relationship"><path fill="#A5ABB6" stroke="none" d="M 25 0.5 L 49.19992961083787 0.5 L 49.19992961083787 -0.5 L 25 -0.5 Z M 109.29758586083787 0.5 L 133.49751547167574 0.5 L 133.49751547167574 3.5 L 140.49751547167574 0 L 133.49751547167574 -3.5 L 133.49751547167574 -0.5 L 109.29758586083787 -0.5 Z" class="outline" transform="translate(255.2527138778566 120.84377556910877) rotate(189.99113495510284)"/><text x="79.249" y="3" fill="#000" font-family="sans-serif" font-size="8" pointer-events="none" text-anchor="middle" transform="translate(255.2527138778566 120.84377556910877) rotate(189.99113495510284) rotate(180 79.24875773583787 0)">BELONGS_TO</text></g><g class="relationship"><path fill="#A5ABB6" stroke="none" d="M 25 0.5 L 66.31378705811987 0.5 L 66.31378705811987 -0.5 L 25 -0.5 Z M 126.41144330811987 0.5 L 167.72523036623974 0.5 L 167.72523036623974 3.5 L 174.72523036623974 0 L 167.72523036623974 -3.5 L 167.72523036623974 -0.5 L 126.41144330811987 -0.5 Z" class="outline" transform="translate(287.4006258631355 49.55990990458289) rotate(527.6931885312356)"/><text x="96.363" y="3" fill="#000" font-family="sans-serif" font-size="8" pointer-events="none" text-anchor="middle" transform="translate(287.4006258631355 49.55990990458289) rotate(527.6931885312356) rotate(180 96.36261518311987 0)">BELONGS_TO</text></g><g class="relationship"><path fill="#A5ABB6" stroke="none" d="M 25 0.5 L 36.02060488134413 0.5 L 36.02060488134413 -0.5 L 25 -0.5 Z M 96.11826113134413 0.5 L 107.13886601268825 0.5 L 107.13886601268825 3.5 L 114.13886601268825 0 L 107.13886601268825 -3.5 L 107.13886601268825 -0.5 L 96.11826113134413 -0.5 Z" class="outline" transform="translate(229.02670042707496 66.52068556832667) rotate(529.3936389952659)"/><text x="66.069" y="3" fill="#000" font-family="sans-serif" font-size="8" pointer-events="none" text-anchor="middle" transform="translate(229.02670042707496 66.52068556832667) rotate(529.3936389952659) rotate(180 66.06943300634413 0)">BELONGS_TO</text></g><g class="relationship"><path fill="#A5ABB6" stroke="none" d="M 25 0.5 L 41.315407353556836 0.5 L 41.315407353556836 -0.5 L 25 -0.5 Z M 101.41306360355684 0.5 L 117.72847095711367 0.5 L 117.72847095711367 3.5 L 124.72847095711367 0 L 117.72847095711367 -3.5 L 117.72847095711367 -0.5 L 101.41306360355684 -0.5 Z" class="outline" transform="translate(216.09070975939045 7.9533576483739274) rotate(505.7919449950143)"/><text x="71.364" y="3" fill="#000" font-family="sans-serif" font-size="8" pointer-events="none" text-anchor="middle" transform="translate(216.09070975939045 7.9533576483739274) rotate(505.7919449950143) rotate(180 71.36423547855684 0)">BELONGS_TO</text></g><g class="relationship"><path fill="#A5ABB6" stroke="none" d="M 25 0.5 L 26.254545231626608 0.5 L 26.254545231626608 -0.5 L 25 -0.5 Z M 86.35220148162661 0.5 L 87.60674671325322 0.5 L 87.60674671325322 3.5 L 94.60674671325322 0 L 87.60674671325322 -3.5 L 87.60674671325322 -0.5 L 86.35220148162661 -0.5 Z" class="outline" transform="translate(123.9681565159212 -23.19794790388873) rotate(465.3705971588461)"/><text x="56.303" y="3" fill="#000" font-family="sans-serif" font-size="8" pointer-events="none" text-anchor="middle" transform="translate(123.9681565159212 -23.19794790388873) rotate(465.3705971588461) rotate(180 56.30337335662661 0)">BELONGS_TO</text></g><g class="relationship"><path fill="#A5ABB6" stroke="none" d="M 25 0.5 L 46.48833147588098 0.5 L 46.48833147588098 -0.5 L 25 -0.5 Z M 106.58598772588098 0.5 L 128.07431920176197 0.5 L 128.07431920176197 3.5 L 135.07431920176197 0 L 128.07431920176197 -3.5 L 128.07431920176197 -0.5 L 106.58598772588098 -0.5 Z" class="outline" transform="translate(181.27631646767284 -40.91362348163331) rotate(483.78391000718455)"/><text x="76.537" y="3" fill="#000" font-family="sans-serif" font-size="8" pointer-events="none" text-anchor="middle" transform="translate(181.27631646767284 -40.91362348163331) rotate(483.78391000718455) rotate(180 76.53715960088098 0)">BELONGS_TO</text></g><g class="relationship"><path fill="#A5ABB6" stroke="none" d="M 25 0.5 L 47.00152102061482 0.5 L 47.00152102061482 -0.5 L 25 -0.5 Z M 107.09917727061482 0.5 L 129.10069829122963 0.5 L 129.10069829122963 3.5 L 136.10069829122963 0 L 129.10069829122963 -3.5 L 129.10069829122963 -0.5 L 107.09917727061482 -0.5 Z" class="outline" transform="translate(73.34017857848683 -67.85461316213383) rotate(443.2537612609452)"/><text x="77.05" y="3" fill="#000" font-family="sans-serif" font-size="8" pointer-events="none" text-anchor="middle" transform="translate(73.34017857848683 -67.85461316213383) rotate(443.2537612609452)">BELONGS_TO</text></g><g class="relationship"><path fill="#A5ABB6" stroke="none" d="M 25 0.5 L 62.19168914308109 0.5 L 62.19168914308109 -0.5 L 25 -0.5 Z M 122.28934539308109 0.5 L 159.48103453616218 0.5 L 159.48103453616218 3.5 L 166.48103453616218 0 L 159.48103453616218 -3.5 L 159.48103453616218 -0.5 L 122.28934539308109 -0.5 Z" class="outline" transform="translate(138.87423182723495 -93.5911006107629) rotate(464.08813600209385)"/><text x="92.241" y="3" fill="#000" font-family="sans-serif" font-size="8" pointer-events="none" text-anchor="middle" transform="translate(138.87423182723495 -93.5911006107629) rotate(464.08813600209385) rotate(180 92.24051726808109 0)">BELONGS_TO</text></g><g class="relationship"><path fill="#A5ABB6" stroke="none" d="M 25 0.5 L 25.51583788522077 0.5 L 25.51583788522077 -0.5 L 25 -0.5 Z M 82.64474413522078 0.5 L 83.16058202044154 0.5 L 83.16058202044154 3.5 L 90.16058202044154 0 L 83.16058202044154 -3.5 L 83.16058202044154 -0.5 L 82.64474413522078 -0.5 Z" class="outline" transform="translate(41.93593208575256 -11.449951301377101) rotate(424.08520262381535)"/><text x="54.08" y="3" fill="#000" font-family="sans-serif" font-size="8" pointer-events="none" text-anchor="middle" transform="translate(41.93593208575256 -11.449951301377101) rotate(424.08520262381535)">BELONGS_…</text></g><g class="relationship"><path fill="#A5ABB6" stroke="none" d="M 25 0.5 L 53.499418281496816 0.5 L 53.499418281496816 -0.5 L 25 -0.5 Z M 113.59707453149682 0.5 L 142.09649281299363 0.5 L 142.09649281299363 3.5 L 149.09649281299363 0 L 142.09649281299363 -3.5 L 142.09649281299363 -0.5 L 113.59707453149682 -0.5 Z" class="outline" transform="translate(3.9828691183851914 -57.92216715463057) rotate(419.5299731640476)"/><text x="83.548" y="3" fill="#000" font-family="sans-serif" font-size="8" pointer-events="none" text-anchor="middle" transform="translate(3.9828691183851914 -57.92216715463057) rotate(419.5299731640476)">BELONGS_TO</text></g><g class="relationship"><path fill="#A5ABB6" stroke="none" d="M 25 0.5 L 46.13630039295661 0.5 L 46.13630039295661 -0.5 L 25 -0.5 Z M 106.23395664295661 0.5 L 127.37025703591323 0.5 L 127.37025703591323 3.5 L 134.37025703591323 0 L 127.37025703591323 -3.5 L 127.37025703591323 -0.5 L 106.23395664295661 -0.5 Z" class="outline" transform="translate(-30.84645109855776 -9.07429570522576) rotate(399.4222341087423)"/><text x="76.185" y="3" fill="#000" font-family="sans-serif" font-size="8" pointer-events="none" text-anchor="middle" transform="translate(-30.84645109855776 -9.07429570522576) rotate(399.4222341087423)">BELONGS_TO</text></g><g class="relationship"><path fill="#A5ABB6" stroke="none" d="M 25 0.5 L 67.48720317250978 0.5 L 67.48720317250978 -0.5 L 25 -0.5 Z M 127.58485942250978 0.5 L 170.07206259501956 0.5 L 170.07206259501956 3.5 L 177.07206259501956 0 L 170.07206259501956 -3.5 L 170.07206259501956 -0.5 L 127.58485942250978 -0.5 Z" class="outline" transform="translate(-104.89975587837596 47.86820094973252) rotate(372.6528240922643)"/><text x="97.536" y="3" fill="#000" font-family="sans-serif" font-size="8" pointer-events="none" text-anchor="middle" transform="translate(-104.89975587837596 47.86820094973252) rotate(372.6528240922643)">BELONGS_TO</text></g><g class="relationship"><path fill="#A5ABB6" stroke="none" d="M 25 0.5 L 34.24208197051243 0.5 L 34.24208197051243 -0.5 L 25 -0.5 Z M 94.33973822051243 0.5 L 103.58182019102486 0.5 L 103.58182019102486 3.5 L 110.58182019102486 0 L 103.58182019102486 -3.5 L 103.58182019102486 -0.5 L 94.33973822051243 -0.5 Z" class="outline" transform="translate(-36.798392596778875 50.596783925372215) rotate(377.8386810130007)"/><text x="64.291" y="3" fill="#000" font-family="sans-serif" font-size="8" pointer-events="none" text-anchor="middle" transform="translate(-36.798392596778875 50.596783925372215) rotate(377.8386810130007)">BELONGS_TO</text></g><g class="relationship"><path fill="#A5ABB6" stroke="none" d="M 25 0.5 L 47.032246030781266 0.5 L 47.032246030781266 -0.5 L 25 -0.5 Z M 107.12990228078127 0.5 L 129.16214831156253 0.5 L 129.16214831156253 3.5 L 136.16214831156253 0 L 129.16214831156253 -3.5 L 129.16214831156253 -0.5 L 107.12990228078127 -0.5 Z" class="outline" transform="translate(-68.62679735771353 101.4610845100824) rotate(356.6810225775198)"/><text x="77.081" y="3" fill="#000" font-family="sans-serif" font-size="8" pointer-events="none" text-anchor="middle" transform="translate(-68.62679735771353 101.4610845100824) rotate(356.6810225775198)">BELONGS_TO</text></g><g class="relationship"><path fill="#A5ABB6" stroke="none" d="M 25 0.5 L 27.18083031198583 0.5 L 27.18083031198583 -0.5 L 25 -0.5 Z M 79.86051781198583 0.5 L 82.04134812397166 0.5 L 82.04134812397166 3.5 L 89.04134812397166 0 L 82.04134812397166 -3.5 L 82.04134812397166 -0.5 L 79.86051781198583 -0.5 Z" class="outline" transform="translate(-15.536466499748546 129.33637399378216) rotate(340.9588189642376)"/><text x="53.521" y="3" fill="#000" font-family="sans-serif" font-size="8" pointer-events="none" text-anchor="middle" transform="translate(-15.536466499748546 129.33637399378216) rotate(340.9588189642376)">BELONGS…</text></g><g class="relationship"><path fill="#A5ABB6" stroke="none" d="M 25 0.5 L 48.752502926729534 0.5 L 48.752502926729534 -0.5 L 25 -0.5 Z M 108.85015917672953 0.5 L 132.60266210345907 0.5 L 132.60266210345907 3.5 L 139.60266210345907 0 L 132.60266210345907 -3.5 L 132.60266210345907 -0.5 L 108.85015917672953 -0.5 Z" class="outline" transform="translate(-46.50629379426634 180.65497144287383) rotate(327.4655831425803)"/><text x="78.801" y="3" fill="#000" font-family="sans-serif" font-size="8" pointer-events="none" text-anchor="middle" transform="translate(-46.50629379426634 180.65497144287383) rotate(327.4655831425803)">BELONGS_TO</text></g><g class="relationship"><path fill="#A5ABB6" stroke="none" d="M 25 0.5 L 26.865075833613297 0.5 L 26.865075833613297 -0.5 L 25 -0.5 Z M 86.9627320836133 0.5 L 88.8278079172266 0.5 L 88.8278079172266 3.5 L 95.8278079172266 0 L 88.8278079172266 -3.5 L 88.8278079172266 -0.5 L 86.9627320836133 -0.5 Z" class="outline" transform="translate(67.26954769155208 210.34479979658764) rotate(281.93890984897615)"/><text x="56.914" y="3" fill="#000" font-family="sans-serif" font-size="8" pointer-events="none" text-anchor="middle" transform="translate(67.26954769155208 210.34479979658764) rotate(281.93890984897615)">BELONGS_TO</text></g><g class="relationship"><path fill="#A5ABB6" stroke="none" d="M 25 0.5 L 37.90718888803323 0.5 L 37.90718888803323 -0.5 L 25 -0.5 Z M 98.00484513803323 0.5 L 110.91203402606646 0.5 L 110.91203402606646 3.5 L 117.91203402606646 0 L 110.91203402606646 -3.5 L 110.91203402606646 -0.5 L 98.00484513803323 -0.5 Z" class="outline" transform="translate(7.339047093074828 207.07162056080008) rotate(306.4594388033778)"/><text x="67.956" y="3" fill="#000" font-family="sans-serif" font-size="8" pointer-events="none" text-anchor="middle" transform="translate(7.339047093074828 207.07162056080008) rotate(306.4594388033778)">BELONGS_TO</text></g><g class="relationship"><path fill="#A5ABB6" stroke="none" d="M 25 0.5 L 56.9282787544965 0.5 L 56.9282787544965 -0.5 L 25 -0.5 Z M 117.0259350044965 0.5 L 148.954213758993 0.5 L 148.954213758993 3.5 L 155.954213758993 0 L 148.954213758993 -3.5 L 148.954213758993 -0.5 L 117.0259350044965 -0.5 Z" class="outline" transform="translate(30.761751810524288 262.3122423045483) rotate(289.8697527361074)"/><text x="86.977" y="3" fill="#000" font-family="sans-serif" font-size="8" pointer-events="none" text-anchor="middle" transform="translate(30.761751810524288 262.3122423045483) rotate(289.8697527361074)">BELONGS_TO</text></g><g class="relationship"><path fill="#A5ABB6" stroke="none" d="M 25 0.5 L 78.44921904959183 0.5 L 78.44921904959183 -0.5 L 25 -0.5 Z M 138.54687529959182 0.5 L 191.99609434918366 0.5 L 191.99609434918366 3.5 L 198.99609434918366 0 L 191.99609434918366 -3.5 L 191.99609434918366 -0.5 L 138.54687529959182 -0.5 Z" class="outline" transform="translate(61.20226121484547 313.9624671825302) rotate(277.9712107468474)"/><text x="108.498" y="3" fill="#000" font-family="sans-serif" font-size="8" pointer-events="none" text-anchor="middle" transform="translate(61.20226121484547 313.9624671825302) rotate(277.9712107468474)">BELONGS_TO</text></g><g class="relationship"><path fill="#A5ABB6" stroke="none" d="M 25 0.5 L 73.86683310354597 0.5 L 73.86683310354597 -0.5 L 25 -0.5 Z M 133.96448935354596 0.5 L 182.83132245709194 0.5 L 182.83132245709194 3.5 L 189.83132245709194 0 L 182.83132245709194 -3.5 L 182.83132245709194 -0.5 L 133.96448935354596 -0.5 Z" class="outline" transform="translate(141.06029587443015 301.34709297589154) rotate(256.8716674290796)"/><text x="103.916" y="3" fill="#000" font-family="sans-serif" font-size="8" pointer-events="none" text-anchor="middle" transform="translate(141.06029587443015 301.34709297589154) rotate(256.8716674290796) rotate(180 103.91566122854597 0)">BELONGS_TO</text></g><g class="relationship"><path fill="#A5ABB6" stroke="none" d="M 25 0.5 L 74.80741883394681 0.5 L 74.80741883394681 -0.5 L 25 -0.5 Z M 134.90507508394683 0.5 L 184.71249391789362 0.5 L 184.71249391789362 3.5 L 191.71249391789362 0 L 184.71249391789362 -3.5 L 184.71249391789362 -0.5 L 134.90507508394683 -0.5 Z" class="outline" transform="translate(197.66654493583886 281.4843582412063) rotate(240.8980154201239)"/><text x="104.856" y="3" fill="#000" font-family="sans-serif" font-size="8" pointer-events="none" text-anchor="middle" transform="translate(197.66654493583886 281.4843582412063) rotate(240.8980154201239) rotate(180 104.85624695894681 0)">BELONGS_TO</text></g><g class="relationship"><path fill="#A5ABB6" stroke="none" d="M 25 0.5 L 75.06950201211889 0.5 L 75.06950201211889 -0.5 L 25 -0.5 Z M 135.1671582621189 0.5 L 185.23666027423778 0.5 L 185.23666027423778 3.5 L 192.23666027423778 0 L 185.23666027423778 -3.5 L 185.23666027423778 -0.5 L 135.1671582621189 -0.5 Z" class="outline" transform="translate(252.03536459277964 239.3217098906396) rotate(222.65333286578004)"/><text x="105.118" y="3" fill="#000" font-family="sans-serif" font-size="8" pointer-events="none" text-anchor="middle" transform="translate(252.03536459277964 239.3217098906396) rotate(222.65333286578004) rotate(180 105.11833013711889 0)">BELONGS_TO</text></g><g class="relationship"><path fill="#A5ABB6" stroke="none" d="M 25 0.5 L 76.23442570434736 0.5 L 76.23442570434736 -0.5 L 25 -0.5 Z M 136.33208195434736 0.5 L 187.56650765869472 0.5 L 187.56650765869472 3.5 L 194.56650765869472 0 L 187.56650765869472 -3.5 L 187.56650765869472 -0.5 L 136.33208195434736 -0.5 Z" class="outline" transform="translate(295.3815904080179 175.51599411488914) rotate(202.31959747565435)"/><text x="106.283" y="3" fill="#000" font-family="sans-serif" font-size="8" pointer-events="none" text-anchor="middle" transform="translate(295.3815904080179 175.51599411488914) rotate(202.31959747565435) rotate(180 106.28325382934736 0)">BELONGS_TO</text></g><g class="relationship"><path fill="#A5ABB6" stroke="none" d="M 25 0.5 L 73.30889690471759 0.5 L 73.30889690471759 -0.5 L 25 -0.5 Z M 133.40655315471759 0.5 L 181.71545005943517 0.5 L 181.71545005943517 3.5 L 188.71545005943517 0 L 181.71545005943517 -3.5 L 181.71545005943517 -0.5 L 133.40655315471759 -0.5 Z" class="outline" transform="translate(280.01822191583125 -9.962608100642827) rotate(511.4642832964684)"/><text x="103.358" y="3" fill="#000" font-family="sans-serif" font-size="8" pointer-events="none" text-anchor="middle" transform="translate(280.01822191583125 -9.962608100642827) rotate(511.4642832964684) rotate(180 103.35772502971759 0)">BELONGS_TO</text></g><g class="relationship"><path fill="#A5ABB6" stroke="none" d="M 25 0.5 L 70.42875909854287 0.5 L 70.42875909854287 -0.5 L 25 -0.5 Z M 130.52641534854286 0.5 L 175.95517444708574 0.5 L 175.95517444708574 3.5 L 182.95517444708574 0 L 175.95517444708574 -3.5 L 175.95517444708574 -0.5 L 130.52641534854286 -0.5 Z" class="outline" transform="translate(239.77601938807862 -54.44991847942059) rotate(495.1812658744806)"/><text x="100.478" y="3" fill="#000" font-family="sans-serif" font-size="8" pointer-events="none" text-anchor="middle" transform="translate(239.77601938807862 -54.44991847942059) rotate(495.1812658744806) rotate(180 100.47758722354287 0)">BELONGS_TO</text></g><g class="relationship"><path fill="#A5ABB6" stroke="none" d="M 25 0.5 L 75.54556187505084 0.5 L 75.54556187505084 -0.5 L 25 -0.5 Z M 135.64321812505085 0.5 L 186.18878000010167 0.5 L 186.18878000010167 3.5 L 193.18878000010167 0 L 186.18878000010167 -3.5 L 186.18878000010167 -0.5 L 135.64321812505085 -0.5 Z" class="outline" transform="translate(198.65245028934785 -98.36360351375099) rotate(479.1825275785235)"/><text x="105.594" y="3" fill="#000" font-family="sans-serif" font-size="8" pointer-events="none" text-anchor="middle" transform="translate(198.65245028934785 -98.36360351375099) rotate(479.1825275785235) rotate(180 105.59439000005084 0)">BELONGS_TO</text></g><g class="relationship"><path fill="#A5ABB6" stroke="none" d="M 25 0.5 L 75.49113393108642 0.5 L 75.49113393108642 -0.5 L 25 -0.5 Z M 135.58879018108644 0.5 L 186.07992411217285 0.5 L 186.07992411217285 3.5 L 193.07992411217285 0 L 186.07992411217285 -3.5 L 186.07992411217285 -0.5 L 135.58879018108644 -0.5 Z" class="outline" transform="translate(88.35748321880162 -125.91426222301216) rotate(448.973320943888)"/><text x="105.54" y="3" fill="#000" font-family="sans-serif" font-size="8" pointer-events="none" text-anchor="middle" transform="translate(88.35748321880162 -125.91426222301216) rotate(448.973320943888)">BELONGS_TO</text></g><g class="relationship"><path fill="#A5ABB6" stroke="none" d="M 25 0.5 L 75.54076902404452 0.5 L 75.54076902404452 -0.5 L 25 -0.5 Z M 135.63842527404452 0.5 L 186.17919429808904 0.5 L 186.17919429808904 3.5 L 193.17919429808904 0 L 186.17919429808904 -3.5 L 186.17919429808904 -0.5 L 135.63842527404452 -0.5 Z" class="outline" transform="translate(23.024819205974946 -114.77017900799848) rotate(431.4969706228089)"/><text x="105.59" y="3" fill="#000" font-family="sans-serif" font-size="8" pointer-events="none" text-anchor="middle" transform="translate(23.024819205974946 -114.77017900799848) rotate(431.4969706228089)">BELONGS_TO</text></g><g class="relationship"><path fill="#A5ABB6" stroke="none" d="M 25 0.5 L 74.27789325941409 0.5 L 74.27789325941409 -0.5 L 25 -0.5 Z M 134.3755495094141 0.5 L 183.65344276882817 0.5 L 183.65344276882817 3.5 L 190.65344276882817 0 L 183.65344276882817 -3.5 L 183.65344276882817 -0.5 L 134.3755495094141 -0.5 Z" class="outline" transform="translate(-55.58518340097445 -64.86209014502268) rotate(406.7178390513178)"/><text x="104.327" y="3" fill="#000" font-family="sans-serif" font-size="8" pointer-events="none" text-anchor="middle" transform="translate(-55.58518340097445 -64.86209014502268) rotate(406.7178390513178)">BELONGS_TO</text></g><g class="relationship"><path fill="#A5ABB6" stroke="none" d="M 25 0.5 L 71.38436295661516 0.5 L 71.38436295661516 -0.5 L 25 -0.5 Z M 131.48201920661518 0.5 L 177.86638216323033 0.5 L 177.86638216323033 3.5 L 184.86638216323033 0 L 177.86638216323033 -3.5 L 177.86638216323033 -0.5 L 131.48201920661518 -0.5 Z" class="outline" transform="translate(-90.83054230530514 -10.435954653285894) rotate(389.2567070373258)"/><text x="101.433" y="3" fill="#000" font-family="sans-serif" font-size="8" pointer-events="none" text-anchor="middle" transform="translate(-90.83054230530514 -10.435954653285894) rotate(389.2567070373258)">BELONGS_TO</text></g><g class="relationship"><path fill="#A5ABB6" stroke="none" d="M 25 0.5 L 77.00618046885683 0.5 L 77.00618046885683 -0.5 L 25 -0.5 Z M 137.10383671885683 0.5 L 189.11001718771365 0.5 L 189.11001718771365 3.5 L 196.11001718771365 0 L 189.11001718771365 -3.5 L 189.11001718771365 -0.5 L 137.10383671885683 -0.5 Z" class="outline" transform="translate(-128.40738818631752 106.03468827834956) rotate(356.39469708436695)"/><text x="107.055" y="3" fill="#000" font-family="sans-serif" font-size="8" pointer-events="none" text-anchor="middle" transform="translate(-128.40738818631752 106.03468827834956) rotate(356.39469708436695)">BELONGS_TO</text></g><g class="relationship"><path fill="#A5ABB6" stroke="none" d="M 25 0.5 L 70.89815131944788 0.5 L 70.89815131944788 -0.5 L 25 -0.5 Z M 130.9958075694479 0.5 L 176.89395888889575 0.5 L 176.89395888889575 3.5 L 183.89395888889575 0 L 176.89395888889575 -3.5 L 176.89395888889575 -0.5 L 130.9958075694479 -0.5 Z" class="outline" transform="translate(-104.01759960221148 163.6136158759225) rotate(339.98919327345254)"/><text x="100.947" y="3" fill="#000" font-family="sans-serif" font-size="8" pointer-events="none" text-anchor="middle" transform="translate(-104.01759960221148 163.6136158759225) rotate(339.98919327345254)">BELONGS_TO</text></g><g class="relationship"><path fill="#A5ABB6" stroke="none" d="M 25 0.5 L 76.67991684091226 0.5 L 76.67991684091226 -0.5 L 25 -0.5 Z M 136.77757309091226 0.5 L 188.4574899318245 0.5 L 188.4574899318245 3.5 L 195.4574899318245 0 L 188.4574899318245 -3.5 L 188.4574899318245 -0.5 L 136.77757309091226 -0.5 Z" class="outline" transform="translate(-78.81867988934464 231.16973964654701) rotate(320.89936946078626)"/><text x="106.729" y="3" fill="#000" font-family="sans-serif" font-size="8" pointer-events="none" text-anchor="middle" transform="translate(-78.81867988934464 231.16973964654701) rotate(320.89936946078626)">BELONGS_TO</text></g><g class="relationship"><path fill="#A5ABB6" stroke="none" d="M 25 0.5 L 71.99302160451208 0.5 L 71.99302160451208 -0.5 L 25 -0.5 Z M 132.09067785451208 0.5 L 179.08369945902416 0.5 L 179.08369945902416 3.5 L 186.08369945902416 0 L 179.08369945902416 -3.5 L 179.08369945902416 -0.5 L 132.09067785451208 -0.5 Z" class="outline" transform="translate(-29.15010972474896 264.7999633830818) rotate(305.1135727460572)"/><text x="102.042" y="3" fill="#000" font-family="sans-serif" font-size="8" pointer-events="none" text-anchor="middle" transform="translate(-29.15010972474896 264.7999633830818) rotate(305.1135727460572)">BELONGS_TO</text></g></g><g class="layer nodes"><g class="node" transform="translate(94.23977942039565,263.91020216693573)"><circle cx="0" cy="0" r="25" fill="#F79767" stroke="#f36924" stroke-width="2" class="outline"/><text y="0" fill="#FFF" font-family="sans-serif" font-size="10" pointer-events="none" text-anchor="middle">Name</text><text y="10" fill="#FFF" font-family="sans-serif" font-size="10" pointer-events="none" text-anchor="middle">519106…</text></g><g class="node selected" transform="translate(92.26503297038877,92.13065139734711)"><circle cx="0" cy="0" r="25" fill="#57C7E3" stroke="#23b3d7" stroke-width="2" class="outline"/><text y="0" fill="#FFF" font-family="sans-serif" font-size="10" pointer-events="none" text-anchor="middle">Surname</text><text y="10" fill="#FFF" font-family="sans-serif" font-size="10" pointer-events="none" text-anchor="middle">B</text></g><g class="node" transform="translate(194.3979341052232,133.75376548085708)"><circle cx="0" cy="0" r="25" fill="#F79767" stroke="#f36924" stroke-width="2" class="outline"/><text y="0" fill="#FFF" font-family="sans-serif" font-size="10" pointer-events="none" text-anchor="middle">Name</text><text y="10" fill="#FFF" font-family="sans-serif" font-size="10" pointer-events="none" text-anchor="middle">153887…</text></g><g class="node" transform="translate(134.8056773843811,219.69972855207052)"><circle cx="0" cy="0" r="25" fill="#F79767" stroke="#f36924" stroke-width="2" class="outline"/><text y="0" fill="#FFF" font-family="sans-serif" font-size="10" pointer-events="none" text-anchor="middle">Name</text><text y="10" fill="#FFF" font-family="sans-serif" font-size="10" pointer-events="none" text-anchor="middle">-40798…</text></g><g class="node" transform="translate(194.7258426180597,221.55472776081936)"><circle cx="0" cy="0" r="25" fill="#F79767" stroke="#f36924" stroke-width="2" class="outline"/><text y="0" fill="#FFF" font-family="sans-serif" font-size="10" pointer-events="none" text-anchor="middle">Name</text><text y="10" fill="#FFF" font-family="sans-serif" font-size="10" pointer-events="none" text-anchor="middle">-10748…</text></g><g class="node" transform="translate(235.43878193738112,177.50271227367745)"><circle cx="0" cy="0" r="25" fill="#F79767" stroke="#f36924" stroke-width="2" class="outline"/><text y="0" fill="#FFF" font-family="sans-serif" font-size="10" pointer-events="none" text-anchor="middle">Name</text><text y="10" fill="#FFF" font-family="sans-serif" font-size="10" pointer-events="none" text-anchor="middle">912454…</text></g><g class="node" transform="translate(312.82671708204145,104.12983009181539)"><circle cx="0" cy="0" r="25" fill="#F79767" stroke="#f36924" stroke-width="2" class="outline"/><text y="0" fill="#FFF" font-family="sans-serif" font-size="10" pointer-events="none" text-anchor="middle">Name</text><text y="10" fill="#FFF" font-family="sans-serif" font-size="10" pointer-events="none" text-anchor="middle">843782…</text></g><g class="node" transform="translate(255.2527138778566,120.84377556910877)"><circle cx="0" cy="0" r="25" fill="#F79767" stroke="#f36924" stroke-width="2" class="outline"/><text y="0" fill="#FFF" font-family="sans-serif" font-size="10" pointer-events="none" text-anchor="middle">Name</text><text y="10" fill="#FFF" font-family="sans-serif" font-size="10" pointer-events="none" text-anchor="middle">-40235…</text></g><g class="node" transform="translate(287.4006258631355,49.55990990458289)"><circle cx="0" cy="0" r="25" fill="#F79767" stroke="#f36924" stroke-width="2" class="outline"/><text y="0" fill="#FFF" font-family="sans-serif" font-size="10" pointer-events="none" text-anchor="middle">Name</text><text y="10" fill="#FFF" font-family="sans-serif" font-size="10" pointer-events="none" text-anchor="middle">-87719…</text></g><g class="node" transform="translate(229.02670042707496,66.52068556832667)"><circle cx="0" cy="0" r="25" fill="#F79767" stroke="#f36924" stroke-width="2" class="outline"/><text y="0" fill="#FFF" font-family="sans-serif" font-size="10" pointer-events="none" text-anchor="middle">Name</text><text y="10" fill="#FFF" font-family="sans-serif" font-size="10" pointer-events="none" text-anchor="middle">-19082…</text></g><g class="node" transform="translate(216.09070975939045,7.9533576483739274)"><circle cx="0" cy="0" r="25" fill="#F79767" stroke="#f36924" stroke-width="2" class="outline"/><text y="0" fill="#FFF" font-family="sans-serif" font-size="10" pointer-events="none" text-anchor="middle">Name</text><text y="10" fill="#FFF" font-family="sans-serif" font-size="10" pointer-events="none" text-anchor="middle">-18702…</text></g><g class="node" transform="translate(123.9681565159212,-23.19794790388873)"><circle cx="0" cy="0" r="25" fill="#F79767" stroke="#f36924" stroke-width="2" class="outline"/><text y="0" fill="#FFF" font-family="sans-serif" font-size="10" pointer-events="none" text-anchor="middle">Name</text><text y="10" fill="#FFF" font-family="sans-serif" font-size="10" pointer-events="none" text-anchor="middle">-84775…</text></g><g class="node" transform="translate(181.27631646767284,-40.91362348163331)"><circle cx="0" cy="0" r="25" fill="#F79767" stroke="#f36924" stroke-width="2" class="outline"/><text y="0" fill="#FFF" font-family="sans-serif" font-size="10" pointer-events="none" text-anchor="middle">Name</text><text y="10" fill="#FFF" font-family="sans-serif" font-size="10" pointer-events="none" text-anchor="middle">-18059…</text></g><g class="node" transform="translate(73.34017857848683,-67.85461316213383)"><circle cx="0" cy="0" r="25" fill="#F79767" stroke="#f36924" stroke-width="2" class="outline"/><text y="0" fill="#FFF" font-family="sans-serif" font-size="10" pointer-events="none" text-anchor="middle">Name</text><text y="10" fill="#FFF" font-family="sans-serif" font-size="10" pointer-events="none" text-anchor="middle">-18702…</text></g><g class="node" transform="translate(138.87423182723495,-93.5911006107629)"><circle cx="0" cy="0" r="25" fill="#F79767" stroke="#f36924" stroke-width="2" class="outline"/><text y="0" fill="#FFF" font-family="sans-serif" font-size="10" pointer-events="none" text-anchor="middle">Name</text><text y="10" fill="#FFF" font-family="sans-serif" font-size="10" pointer-events="none" text-anchor="middle">212024…</text></g><g class="node" transform="translate(41.93593208575256,-11.449951301377101)"><circle cx="0" cy="0" r="25" fill="#F79767" stroke="#f36924" stroke-width="2" class="outline"/><text y="0" fill="#FFF" font-family="sans-serif" font-size="10" pointer-events="none" text-anchor="middle">Name</text><text y="10" fill="#FFF" font-family="sans-serif" font-size="10" pointer-events="none" text-anchor="middle">708363…</text></g><g class="node" transform="translate(3.9828691183851914,-57.92216715463057)"><circle cx="0" cy="0" r="25" fill="#F79767" stroke="#f36924" stroke-width="2" class="outline"/><text y="0" fill="#FFF" font-family="sans-serif" font-size="10" pointer-events="none" text-anchor="middle">Name</text><text y="10" fill="#FFF" font-family="sans-serif" font-size="10" pointer-events="none" text-anchor="middle">327626…</text></g><g class="node" transform="translate(-30.84645109855776,-9.07429570522576)"><circle cx="0" cy="0" r="25" fill="#F79767" stroke="#f36924" stroke-width="2" class="outline"/><text y="0" fill="#FFF" font-family="sans-serif" font-size="10" pointer-events="none" text-anchor="middle">Name</text><text y="10" fill="#FFF" font-family="sans-serif" font-size="10" pointer-events="none" text-anchor="middle">355288…</text></g><g class="node" transform="translate(-104.89975587837596,47.86820094973252)"><circle cx="0" cy="0" r="25" fill="#F79767" stroke="#f36924" stroke-width="2" class="outline"/><text y="0" fill="#FFF" font-family="sans-serif" font-size="10" pointer-events="none" text-anchor="middle">Name</text><text y="10" fill="#FFF" font-family="sans-serif" font-size="10" pointer-events="none" text-anchor="middle">-10331…</text></g><g class="node" transform="translate(-36.798392596778875,50.596783925372215)"><circle cx="0" cy="0" r="25" fill="#F79767" stroke="#f36924" stroke-width="2" class="outline"/><text y="0" fill="#FFF" font-family="sans-serif" font-size="10" pointer-events="none" text-anchor="middle">Name</text><text y="10" fill="#FFF" font-family="sans-serif" font-size="10" pointer-events="none" text-anchor="middle">195556…</text></g><g class="node" transform="translate(-68.62679735771353,101.4610845100824)"><circle cx="0" cy="0" r="25" fill="#F79767" stroke="#f36924" stroke-width="2" class="outline"/><text y="0" fill="#FFF" font-family="sans-serif" font-size="10" pointer-events="none" text-anchor="middle">Name</text><text y="10" fill="#FFF" font-family="sans-serif" font-size="10" pointer-events="none" text-anchor="middle">105057…</text></g><g class="node" transform="translate(-15.536466499748546,129.33637399378216)"><circle cx="0" cy="0" r="25" fill="#F79767" stroke="#f36924" stroke-width="2" class="outline"/><text y="0" fill="#FFF" font-family="sans-serif" font-size="10" pointer-events="none" text-anchor="middle">Name</text><text y="10" fill="#FFF" font-family="sans-serif" font-size="10" pointer-events="none" text-anchor="middle">130531…</text></g><g class="node" transform="translate(-46.50629379426634,180.65497144287383)"><circle cx="0" cy="0" r="25" fill="#F79767" stroke="#f36924" stroke-width="2" class="outline"/><text y="0" fill="#FFF" font-family="sans-serif" font-size="10" pointer-events="none" text-anchor="middle">Name</text><text y="10" fill="#FFF" font-family="sans-serif" font-size="10" pointer-events="none" text-anchor="middle">197772…</text></g><g class="node" transform="translate(67.26954769155208,210.34479979658764)"><circle cx="0" cy="0" r="25" fill="#F79767" stroke="#f36924" stroke-width="2" class="outline"/><text y="0" fill="#FFF" font-family="sans-serif" font-size="10" pointer-events="none" text-anchor="middle">Name</text><text y="10" fill="#FFF" font-family="sans-serif" font-size="10" pointer-events="none" text-anchor="middle">-39749…</text></g><g class="node" transform="translate(7.339047093074828,207.07162056080008)"><circle cx="0" cy="0" r="25" fill="#F79767" stroke="#f36924" stroke-width="2" class="outline"/><text y="0" fill="#FFF" font-family="sans-serif" font-size="10" pointer-events="none" text-anchor="middle">Name</text><text y="10" fill="#FFF" font-family="sans-serif" font-size="10" pointer-events="none" text-anchor="middle">-96994…</text></g><g class="node" transform="translate(30.761751810524288,262.3122423045483)"><circle cx="0" cy="0" r="25" fill="#F79767" stroke="#f36924" stroke-width="2" class="outline"/><text y="0" fill="#FFF" font-family="sans-serif" font-size="10" pointer-events="none" text-anchor="middle">Name</text><text y="10" fill="#FFF" font-family="sans-serif" font-size="10" pointer-events="none" text-anchor="middle">179630…</text></g><g class="node" transform="translate(61.20226121484547,313.9624671825302)"><circle cx="0" cy="0" r="25" fill="#F79767" stroke="#f36924" stroke-width="2" class="outline"/><text y="0" fill="#FFF" font-family="sans-serif" font-size="10" pointer-events="none" text-anchor="middle">Name</text><text y="10" fill="#FFF" font-family="sans-serif" font-size="10" pointer-events="none" text-anchor="middle">-13292…</text></g><g class="node" transform="translate(141.06029587443015,301.34709297589154)"><circle cx="0" cy="0" r="25" fill="#F79767" stroke="#f36924" stroke-width="2" class="outline"/><text y="0" fill="#FFF" font-family="sans-serif" font-size="10" pointer-events="none" text-anchor="middle">Name</text><text y="10" fill="#FFF" font-family="sans-serif" font-size="10" pointer-events="none" text-anchor="middle">-16061…</text></g><g class="node" transform="translate(197.66654493583886,281.4843582412063)"><circle cx="0" cy="0" r="25" fill="#F79767" stroke="#f36924" stroke-width="2" class="outline"/><text y="0" fill="#FFF" font-family="sans-serif" font-size="10" pointer-events="none" text-anchor="middle">Name</text><text y="10" fill="#FFF" font-family="sans-serif" font-size="10" pointer-events="none" text-anchor="middle">941252…</text></g><g class="node" transform="translate(252.03536459277964,239.3217098906396)"><circle cx="0" cy="0" r="25" fill="#F79767" stroke="#f36924" stroke-width="2" class="outline"/><text y="0" fill="#FFF" font-family="sans-serif" font-size="10" pointer-events="none" text-anchor="middle">Name</text><text y="10" fill="#FFF" font-family="sans-serif" font-size="10" pointer-events="none" text-anchor="middle">182899…</text></g><g class="node" transform="translate(295.3815904080179,175.51599411488914)"><circle cx="0" cy="0" r="25" fill="#F79767" stroke="#f36924" stroke-width="2" class="outline"/><text y="0" fill="#FFF" font-family="sans-serif" font-size="10" pointer-events="none" text-anchor="middle">Name</text><text y="10" fill="#FFF" font-family="sans-serif" font-size="10" pointer-events="none" text-anchor="middle">-10679…</text></g><g class="node" transform="translate(280.01822191583125,-9.962608100642827)"><circle cx="0" cy="0" r="25" fill="#F79767" stroke="#f36924" stroke-width="2" class="outline"/><text y="0" fill="#FFF" font-family="sans-serif" font-size="10" pointer-events="none" text-anchor="middle">Name</text><text y="10" fill="#FFF" font-family="sans-serif" font-size="10" pointer-events="none" text-anchor="middle">-18947…</text></g><g class="node" transform="translate(239.77601938807862,-54.44991847942059)"><circle cx="0" cy="0" r="25" fill="#F79767" stroke="#f36924" stroke-width="2" class="outline"/><text y="0" fill="#FFF" font-family="sans-serif" font-size="10" pointer-events="none" text-anchor="middle">Name</text><text y="10" fill="#FFF" font-family="sans-serif" font-size="10" pointer-events="none" text-anchor="middle">-12204…</text></g><g class="node" transform="translate(198.65245028934785,-98.36360351375099)"><circle cx="0" cy="0" r="25" fill="#F79767" stroke="#f36924" stroke-width="2" class="outline"/><text y="0" fill="#FFF" font-family="sans-serif" font-size="10" pointer-events="none" text-anchor="middle">Name</text><text y="10" fill="#FFF" font-family="sans-serif" font-size="10" pointer-events="none" text-anchor="middle">-15004…</text></g><g class="node" transform="translate(88.35748321880162,-125.91426222301216)"><circle cx="0" cy="0" r="25" fill="#F79767" stroke="#f36924" stroke-width="2" class="outline"/><text y="0" fill="#FFF" font-family="sans-serif" font-size="10" pointer-events="none" text-anchor="middle">Name</text><text y="10" fill="#FFF" font-family="sans-serif" font-size="10" pointer-events="none" text-anchor="middle">131652…</text></g><g class="node" transform="translate(23.024819205974946,-114.77017900799848)"><circle cx="0" cy="0" r="25" fill="#F79767" stroke="#f36924" stroke-width="2" class="outline"/><text y="0" fill="#FFF" font-family="sans-serif" font-size="10" pointer-events="none" text-anchor="middle">Name</text><text y="10" fill="#FFF" font-family="sans-serif" font-size="10" pointer-events="none" text-anchor="middle">266545…</text></g><g class="node" transform="translate(-55.58518340097445,-64.86209014502268)"><circle cx="0" cy="0" r="25" fill="#F79767" stroke="#f36924" stroke-width="2" class="outline"/><text y="0" fill="#FFF" font-family="sans-serif" font-size="10" pointer-events="none" text-anchor="middle">Name</text><text y="10" fill="#FFF" font-family="sans-serif" font-size="10" pointer-events="none" text-anchor="middle">-65588…</text></g><g class="node" transform="translate(-90.83054230530514,-10.435954653285894)"><circle cx="0" cy="0" r="25" fill="#F79767" stroke="#f36924" stroke-width="2" class="outline"/><text y="0" fill="#FFF" font-family="sans-serif" font-size="10" pointer-events="none" text-anchor="middle">Name</text><text y="10" fill="#FFF" font-family="sans-serif" font-size="10" pointer-events="none" text-anchor="middle">-13541…</text></g><g class="node" transform="translate(-128.40738818631752,106.03468827834956)"><circle cx="0" cy="0" r="25" fill="#F79767" stroke="#f36924" stroke-width="2" class="outline"/><text y="0" fill="#FFF" font-family="sans-serif" font-size="10" pointer-events="none" text-anchor="middle">Name</text><text y="10" fill="#FFF" font-family="sans-serif" font-size="10" pointer-events="none" text-anchor="middle">-54963…</text></g><g class="node" transform="translate(-104.01759960221148,163.6136158759225)"><circle cx="0" cy="0" r="25" fill="#F79767" stroke="#f36924" stroke-width="2" class="outline"/><text y="0" fill="#FFF" font-family="sans-serif" font-size="10" pointer-events="none" text-anchor="middle">Name</text><text y="10" fill="#FFF" font-family="sans-serif" font-size="10" pointer-events="none" text-anchor="middle">546024…</text></g><g class="node" transform="translate(-78.81867988934464,231.16973964654701)"><circle cx="0" cy="0" r="25" fill="#F79767" stroke="#f36924" stroke-width="2" class="outline"/><text y="0" fill="#FFF" font-family="sans-serif" font-size="10" pointer-events="none" text-anchor="middle">Name</text><text y="10" fill="#FFF" font-family="sans-serif" font-size="10" pointer-events="none" text-anchor="middle">113318…</text></g><g class="node" transform="translate(-29.15010972474896,264.7999633830818)"><circle cx="0" cy="0" r="25" fill="#F79767" stroke="#f36924" stroke-width="2" class="outline"/><text y="0" fill="#FFF" font-family="sans-serif" font-size="10" pointer-events="none" text-anchor="middle">Name</text><text y="10" fill="#FFF" font-family="sans-serif" font-size="10" pointer-events="none" text-anchor="middle">-20569…</text></g></g></svg>